<svg id="eDYRMEv4CFB1" xmlns="http://www.w3.org/2000/svg" xmlns:xlink="http://www.w3.org/1999/xlink" viewBox="0 0 1920 1080" shape-rendering="geometricPrecision" text-rendering="geometricPrecision"><path d="M1458.16897,158.23616c101.1272,0,183.10699,81.97979,183.10699,183.10699c0,87.62644-61.55186,160.87667-143.77801,178.87312c3.18294,16.61725,4.84921,33.7733,4.84921,51.31852c0,54.99718-16.37231,106.1704-44.50887,148.91163c44.10399,14.47856,75.6076,52.69224,75.6076,97.55619c0,57.30575-51.39985,103.76124-114.80478,103.76124-57.94225,0-105.85892-38.79553-113.68539-89.21401-23.45816,6.61776-48.20667,10.15835-73.78214,10.15835C1081.40855,842.70819,960,721.29973,960,571.5348s121.40855-271.17339,271.17358-271.17339c16.23665,0,32.14001,1.42699,47.5915,4.1624c17.04202-83.48018,90.88822-146.28763,179.40389-146.28763v-.00002Z" transform="translate(69.755042 39.527858)" fill="#fec007" stroke-width="0"/><path d="M1458.16897,158.23616c101.1272,0,183.10699,81.97979,183.10699,183.10699c0,87.62644-61.55186,160.87667-143.77801,178.87312c3.18294,16.61725,4.84921,33.7733,4.84921,51.31852c0,54.99718-16.37231,106.1704-44.50887,148.91163c44.10399,14.47856,75.6076,52.69224,75.6076,97.55619c0,57.30575-51.39985,103.76124-114.80478,103.76124-57.94225,0-105.85892-38.79553-113.68539-89.21401-23.45816,6.61776-48.20667,10.15835-73.78214,10.15835C1081.40855,842.70819,960,721.29973,960,571.5348s121.40855-271.17339,271.17358-271.17339c16.23665,0,32.14001,1.42699,47.5915,4.1624c17.04202-83.48018,90.88822-146.28763,179.40389-146.28763v-.00002Z" transform="matrix(-.609965 0.258118-.258118-.609965 1433.507685 356.949848)" fill="#fec007" stroke-width="0"/></svg>
